<?xml version="1.0" encoding="UTF-8" standalone="no"?>
<!-- Created with Inkscape (http://www.inkscape.org/) -->
<svg id="svg2" xmlns:rdf="http://www.w3.org/1999/02/22-rdf-syntax-ns#" xmlns="http://www.w3.org/2000/svg" height="297mm" width="210mm" version="1.1" xmlns:cc="http://creativecommons.org/ns#" xmlns:dc="http://purl.org/dc/elements/1.1/" viewBox="0 0 744.09448819 1052.3622047">
 <metadata id="metadata7">
  <rdf:RDF>
   <cc:Work rdf:about="">
    <dc:format>image/svg+xml</dc:format>
    <dc:type rdf:resource="http://purl.org/dc/dcmitype/StillImage"/>
    <dc:title/>
   </cc:Work>
  </rdf:RDF>
 </metadata>
 <g id="layer1">
  <path id="path3363" d="m.62497 19.148v-18.75h23.125 23.125v18.75 18.75h-23.125-23.125v-18.75z" fill="#f1f1f1"/>
  <path id="path3361" d="m8.9583 35.815c-1.2814-1.282-.9876-6.424.4167-7.292.6870-.425 1.25-2.648 1.25-4.94 0-4.5255 1.5505-5.685 7.6022-5.685 3.8259 0 4.5652-1.0825 2.2919-3.3558-.74571-.74571-1.1676-2.6863-.9375-4.3125.33160-2.3436 1.2965-3.0406 4.6538-3.3613l4.2354-.40460-.6444 5.7171-.6444 5.7171h4.0684c5.3725 0 6.5128 1.6505 7.5649 10.95l.88248 7.8001h-3.8876c-3.1338 0-4.0442-.62368-4.6949-3.2165-.45603-1.817-.19444-3.8294.60118-4.625 2.6164-2.6164 1.6539-5.9085-1.7274-5.9085-3.0708 0-3.1189.14472-2.317 6.9678l.81893 6.9678-4.2455-.40535c-3.3676-.32153-4.332-1.0167-4.6638-3.362-.23008-1.6262.19179-3.5668.9375-4.3125 2.5705-2.5705 1.5718-5.8558-1.7801-5.8558-3.0657 0-3.1178.15389-2.3279 6.875l.80802 6.875h-3.7138c-2.0426 0-4.0888-.375-4.5471-.83333zm5.4167-3.5417c0-1.0312-.84375-1.875-1.875-1.875-1.952 0-2.48 1.4784-1.0417 2.9167s2.9167.91030 2.9167-1.0417zm11.25 0c0-1.0312-.5625-1.875-1.25-1.875s-1.25.84375-1.25 1.875.5625 1.875 1.25 1.875 1.25-.84375 1.25-1.875zm11.25 0c0-1.0312-.5625-1.875-1.25-1.875s-1.25.84375-1.25 1.875.5625 1.875 1.25 1.875 1.25-.84375 1.25-1.875zm-11.25-21.25c0-1.0312-.5625-1.875-1.25-1.875s-1.25.84375-1.25 1.875.5625 1.875 1.25 1.875 1.25-.84375 1.25-1.875zm-25-8.1251c0-2.4099.83333-2.5 23.125-2.5s23.125.090090 23.125 2.5-.83333 2.5-23.125 2.5-23.125-.09009-23.125-2.5z" fill="#cdcdcd"/>
  <path id="path3359" d="m9.9233 28.948c1.0687-9.445 2.1877-11.05 7.7057-11.05h4.198l-.77099-5.625-.77099-5.625h4.0898 4.0898l-.77099 5.625-.77099 5.625h4.198c5.5864 0 6.8768 1.898 7.2856 10.716.33201 7.1615.23899 7.4093-2.7815 7.4093-2.9711 0-3.1116-.32321-2.8527-6.5625.25708-6.195.10184-6.5625-2.7723-6.5625-2.8742 0-3.0294.36748-2.7723 6.5625.26498 6.3853.17456 6.5737-3.3491 6.9758l-3.6214.41328.81987-6.9758.81986-6.9758h-3.7609c-2.7883 0-3.7609.58188-3.7609 2.25 0 1.2375.61012 2.8601 1.3558 3.6058.74571.74571 1.1676 2.6863.9375 4.3125-.31222 2.2067-1.3341 3.0612-4.0286 3.3689l-3.6102.41220.89376-7.8998zm4.4517 3.3254c0-1.0312-.84375-1.875-1.875-1.875s-1.875.84375-1.875 1.875.84375 1.875 1.875 1.875 1.875-.84375 1.875-1.875zm11.25 0c0-1.0312-.5625-1.875-1.25-1.875s-1.25.84375-1.25 1.875.5625 1.875 1.25 1.875 1.25-.84375 1.25-1.875zm11.25 0c0-1.0312-.5625-1.875-1.25-1.875s-1.25.84375-1.25 1.875.5625 1.875 1.25 1.875 1.25-.84375 1.25-1.875zm-11.25-21.25c0-1.0312-.5625-1.875-1.25-1.875s-1.25.84375-1.25 1.875.5625 1.875 1.25 1.875 1.25-.84375 1.25-1.875zm-25-8.1251c0-2.4099.83333-2.5 23.125-2.5s23.125.090090 23.125 2.5-.83333 2.5-23.125 2.5-23.125-.09009-23.125-2.5z" fill="#ababab"/>
  <path id="path3357" d="m9.9865 35.376c-.43230-.69947-.39869-4.3717.07469-8.1605.91992-7.3628 2.7207-9.3178 8.5827-9.3178 3.0619 0 3.1534-.21822 2.3985-5.7258l-.78480-5.7258 3.6212.41326c2.7057.30877 3.727 1.1608 4.0395 3.3699.23008 1.6262-.19179 3.5668-.9375 4.3125-2.3399 2.3399-1.4982 3.3558 2.7803 3.3558 6.0995 0 7.9949 2.1841 8.9496 10.312l.84418 7.1875h-3.8399c-3.2378 0-3.8399-.47842-3.8399-3.0512 0-1.6782.5625-3.3989 1.25-3.8238s1.25-1.8643 1.25-3.1988c0-1.9395-.87768-2.4262-4.375-2.4262s-4.375.48673-4.375 2.4262c0 1.3344.5625 2.7739 1.25 3.1988 2.2682 1.4018 1.3994 6.6591-1.2388 7.4964-4.2338 1.3438-5.3597-.4222-4.4829-7.0316l.80784-6.0898h-3.7931c-2.9213 0-3.7931.55763-3.7931 2.4262 0 1.3344.5625 2.7739 1.25 3.1988 1.9776 1.2222 1.4536 6.5294-.72723 7.3663-2.7976 1.0735-4.0089.94698-4.9112-.51303zm4.3885-3.1032c0-1.0312-.84375-1.875-1.875-1.875s-1.875.84375-1.875 1.875.84375 1.875 1.875 1.875 1.875-.84375 1.875-1.875zm11.25 0c0-1.0312-.84375-1.875-1.875-1.875s-1.875.84375-1.875 1.875.84375 1.875 1.875 1.875 1.875-.84375 1.875-1.875zm12.5 0c0-1.0312-.84375-1.875-1.875-1.875s-1.875.84375-1.875 1.875.84375 1.875 1.875 1.875 1.875-.84375 1.875-1.875zm-12.5-21.25c0-1.0312-.84375-1.875-1.875-1.875s-1.875.84375-1.875 1.875.84375 1.875 1.875 1.875 1.875-.84375 1.875-1.875zm-25-8.1251c0-2.4099.83333-2.5 23.125-2.5s23.125.090090 23.125 2.5-.83333 2.5-23.125 2.5-23.125-.09009-23.125-2.5z" fill="#8f8f8f"/>
  <path id="path3355" d="m10.066 28.21c.47907-3.9531 1.1152-7.6094 1.4137-8.125.29848-.51562 2.7263-.9375 5.3951-.9375 5.3411 0 7.2514-1.6622 5.0117-4.361-.79946-.96329-1.2698-3.048-1.0451-4.6327.59246-4.1793 6.487-4.0941 7.0803.10234.23203 1.641-.27182 3.4124-1.1196 3.9363-3.1853 1.9686-.15151 4.955 5.0336 4.955 4.9093 0 5.0392.11088 5.0392 4.3012 0 2.3657.5625 4.6489 1.25 5.0738s1.25 2.1456 1.25 3.8238c0 2.5569-.60751 3.0512-3.75 3.0512-2.9251 0-3.75-.55367-3.75-2.517 0-1.3843.65127-3.5598 1.4473-4.8344 2.0614-3.3008.45292-6.3986-3.3223-6.3986s-5.3836 3.0978-3.3223 6.3986c0.796 1.2746 1.4473 3.4501 1.4473 4.8344 0 1.9633-.82491 2.517-3.75 2.517s-3.75-.55367-3.75-2.517c0-1.3843.65127-3.5598 1.4473-4.8344 2.0614-3.3008.45292-6.3986-3.3223-6.3986s-5.3836 3.0978-3.3223 6.3986c0.796 1.2746 1.4473 3.4501 1.4473 4.8344 0 1.9764-.82471 2.517-3.8399 2.517h-3.8399l.87103-7.1875zm4.3089 4.0625c0-1.0312-.84375-1.875-1.875-1.875s-1.875.84375-1.875 1.875.84375 1.875 1.875 1.875 1.875-.84375 1.875-1.875zm12.5 0c0-1.0417-1.1111-1.875-2.5-1.875s-2.5.83333-2.5 1.875 1.1111 1.875 2.5 1.875 2.5-.83333 2.5-1.875zm11.25 0c0-1.0417-1.1111-1.875-2.5-1.875s-2.5.83333-2.5 1.875 1.1111 1.875 2.5 1.875 2.5-.83333 2.5-1.875zm-11.25-21.25c0-1.0417-1.1111-1.875-2.5-1.875s-2.5.83333-2.5 1.875 1.1111 1.875 2.5 1.875 2.5-.83333 2.5-1.875zm-26.25-8.1241c0-2.4099.83333-2.5 23.125-2.5s23.125.090090 23.125 2.5-.83333 2.5-23.125 2.5-23.125-.09009-23.125-2.5z" fill="#7085a3"/>
  <path id="path3353" d="m10.066 28.21c.47907-3.9531 1.1152-7.6094 1.4137-8.125.29848-.51562 2.7263-.9375 5.3951-.9375 5.3411 0 7.2514-1.6622 5.0117-4.361-.79946-.96329-1.2698-3.048-1.0451-4.6327.59246-4.1793 6.487-4.0941 7.0803.10234.23203 1.641-.27182 3.4124-1.1196 3.9363-3.1853 1.9686-.15151 4.955 5.0336 4.955 4.9093 0 5.0392.11088 5.0392 4.3012 0 2.3657.5625 4.6489 1.25 5.0738s1.25 2.1456 1.25 3.8238c0 2.5569-.60751 3.0512-3.75 3.0512-2.9251 0-3.75-.55367-3.75-2.517 0-1.3843.65127-3.5598 1.4473-4.8344 2.0614-3.3008.45292-6.3986-3.3223-6.3986s-5.3836 3.0978-3.3223 6.3986c0.796 1.2746 1.4473 3.4501 1.4473 4.8344 0 1.9633-.82491 2.517-3.75 2.517s-3.75-.55367-3.75-2.517c0-1.3843.65127-3.5598 1.4473-4.8344 2.0614-3.3008.45292-6.3986-3.3223-6.3986s-5.3836 3.0978-3.3223 6.3986c0.796 1.2746 1.4473 3.4501 1.4473 4.8344 0 1.9764-.82471 2.517-3.8399 2.517h-3.8399l.87103-7.1875zm4.3089 4.0625c0-1.0312-.84375-1.875-1.875-1.875s-1.875.84375-1.875 1.875.84375 1.875 1.875 1.875 1.875-.84375 1.875-1.875zm12.5 0c0-1.0417-1.1111-1.875-2.5-1.875s-2.5.83333-2.5 1.875 1.1111 1.875 2.5 1.875 2.5-.83333 2.5-1.875zm11.25 0c0-1.0417-1.1111-1.875-2.5-1.875s-2.5.83333-2.5 1.875 1.1111 1.875 2.5 1.875 2.5-.83333 2.5-1.875zm-11.25-21.25c0-1.0417-1.1111-1.875-2.5-1.875s-2.5.83333-2.5 1.875 1.1111 1.875 2.5 1.875 2.5-.83333 2.5-1.875zm-26.25-8.7491c0-1.5991 3.4028-1.875 23.125-1.875s23.125.27590 23.125 1.875-3.4028 1.875-23.125 1.875-23.125-.27590-23.125-1.875z" fill="#5e7698"/>
  <path id="path3351" d="m10.066 28.21c.47907-3.9531 1.1152-7.6094 1.4137-8.125.29848-.51562 2.7263-.9375 5.3951-.9375 5.3411 0 7.2514-1.6622 5.0117-4.361-.79946-.96329-1.2698-3.048-1.0451-4.6327.30211-2.1311 1.2221-2.8813 3.5335-2.8813 2.4799 0 3.2067.70964 3.5205 3.4375.21754 1.8906-.20433 3.4375-.9375 3.4375-.73316 0-1.333 1.125-1.333 2.5 0 2.1296.83333 2.5 5.625 2.5 5.5769 0 5.625.03681 5.625 4.3012 0 2.3657.5625 4.6489 1.25 5.0738s1.25 2.1456 1.25 3.8238c0 2.5569-.60751 3.0512-3.75 3.0512-2.9251 0-3.75-.55367-3.75-2.517 0-1.3843.65127-3.5598 1.4473-4.8344 2.0614-3.3008.45292-6.3986-3.3223-6.3986s-5.3836 3.0978-3.3223 6.3986c0.796 1.2746 1.4473 3.4501 1.4473 4.8344 0 1.9633-.82491 2.517-3.75 2.517s-3.75-.55367-3.75-2.517c0-1.3843.65127-3.5598 1.4473-4.8344 2.2043-3.5296.45196-6.3986-3.908-6.3986-3.3168 0-3.7892.43639-3.7892 3.5 0 1.925.63719 4.1372 1.416 4.916 2.2137 2.2137.25882 5.334-3.3417 5.334-3.2293 0-3.2475-.05503-2.3831-7.1875zm4.3089 4.0625c0-1.0312-.84375-1.875-1.875-1.875s-1.875.84375-1.875 1.875.84375 1.875 1.875 1.875 1.875-.84375 1.875-1.875zm12.5 0c0-1.0417-1.1111-1.875-2.5-1.875s-2.5.83333-2.5 1.875 1.1111 1.875 2.5 1.875 2.5-.83333 2.5-1.875zm11.25 0c0-1.0417-1.1111-1.875-2.5-1.875s-2.5.83333-2.5 1.875 1.1111 1.875 2.5 1.875 2.5-.83333 2.5-1.875zm-11.25-21.25c0-1.0417-1.1111-1.875-2.5-1.875s-2.5.83333-2.5 1.875 1.1111 1.875 2.5 1.875 2.5-.83333 2.5-1.875z" fill="#565656"/>
  <path id="path3349" d="m9.375 32.347c0-1.6782.5625-3.3989 1.25-3.8238s1.25-2.7081 1.25-5.0738c0-4.2644.04814-4.3012 5.625-4.3012 4.7917 0 5.625-.37037 5.625-2.5 0-1.375-.5625-2.5-1.25-2.5s-1.1939-1.5469-1.1254-3.4375l.1246-3.4375.89948 3.125c.49471 1.7188 1.752 3.0624 2.7939 2.9858 1.326-.09742 1.7296 0.723 1.3452 2.7342-.49687 2.5992-.02978 2.9107 4.894 3.2642 5.1928.37278 5.462.58735 5.8506 4.663.27748 2.9103-.22064 4.6237-1.5625 5.3746-2.7588 1.5439-2.4603 4.7282.44322 4.7282 1.5086 0 2.6161-1.0542 2.9548-2.8125.46446-2.4114.56599-2.3223.71194.625.14975 3.0239-.28093 3.4375-3.5798 3.4375-3.1667 0-3.75-.48611-3.75-3.125 0-1.7188.5625-3.125 1.25-3.125s1.25-1.6875 1.25-3.75c0-3.474-.33203-3.75-4.5118-3.75-4.3914 0-4.4986.11289-4.0176 4.2331.35925 3.0772.05527 4.0647-1.1132 3.6163-.88409-.33926-1.6074-2.2441-1.6074-4.2331 0-3.3204-.36910-3.6163-4.5118-3.6163-4.3816 0-4.4977.1208-4.023 4.1866.41094 3.52.1342 4.0939-1.7382 3.6042-1.6004-.41852-2.227.13760-2.227 1.9765 0 1.6598.98819 2.7492 2.8125 3.1006 2.4114.46446 2.3223.56599-.625.71194-2.8592.140-3.439-.346-3.439-2.882zm11.718 1.217c-.38702-1.0086-.41378-2.5554-.05945-3.4375.35432-.88206.68864-.37723.74291 1.1218.06482 1.7906 1.0635 2.9114 2.9112 3.2673l2.8125.54171-2.8517.17023c-1.5685.09363-3.1684-.65497-3.5554-1.6635z" fill="#3a3a3a"/>
 </g>
</svg>
